<?xml version="1.0" encoding="utf-8"?>
<!-- Generator: Adobe Illustrator 24.2.0, SVG Export Plug-In . SVG Version: 6.00 Build 0)  -->
<svg version="1.1" id="katman_1" xmlns="http://www.w3.org/2000/svg" xmlns:xlink="http://www.w3.org/1999/xlink" x="0px" y="0px"
	 viewBox="0 0 413.02 184" style="enable-background:new 0 0 413.02 184;" xml:space="preserve">
<style type="text/css">
	.st0{fill-rule:evenodd;clip-rule:evenodd;fill:#003F70;}
	.st1{clip-path:url(#SVGID_2_);}
	.st2{fill:none;stroke:#ED1652;stroke-width:9;stroke-miterlimit:10;}
	.st3{clip-path:url(#SVGID_4_);}
	.st4{fill:none;stroke:#003F70;stroke-width:9;stroke-miterlimit:10;}
	.st5{fill-rule:evenodd;clip-rule:evenodd;fill:#005F9B;}
	.st6{fill-rule:evenodd;clip-rule:evenodd;fill:#E6334C;}
	.st7{fill-rule:evenodd;clip-rule:evenodd;fill:#1A1A18;}
	.st8{fill:none;stroke:#1A1A18;stroke-width:0.216;stroke-miterlimit:22.9256;}
	.st9{fill-rule:evenodd;clip-rule:evenodd;}
</style>
<g>
	<path class="st0" d="M49.11,101.72c-0.76-0.16-11.22-0.12-11.72,0.04c0,0.21,0,0.45,0,0.68c0,2.41,0,4.82,0,7.23
		c0,0.64,0.02,1.28,0.07,1.92c0.23,2.75,1.35,5.09,3.41,6.94c1.2,1.08,2.6,1.86,4.13,2.38c2.84,0.99,5.76,1.14,8.71,0.7
		c1.96-0.29,3.81-0.91,5.49-1.99c3.24-2.08,4.97-5.05,5.02-8.9c0.06-4.8,0.01-9.6,0.01-14.4c0-1.2-0.17-2.38-0.48-3.54
		c-0.77-2.94-2.46-5.28-4.84-7.11c-1.25-0.96-2.6-1.79-3.92-2.65c-0.98-0.64-2.02-1.19-2.99-1.85c-0.68-0.47-1.32-1.01-1.91-1.59
		c-0.67-0.67-1-1.51-1-2.48c0.01-4.48,0-8.96,0.01-13.44c0-0.34,0.04-0.68,0.12-1.01c0.21-0.87,0.74-1.28,1.59-1.27
		c0.86,0.01,1.44,0.47,1.62,1.34c0.08,0.39,0.11,0.8,0.11,1.21c0.01,2.54,0,5.08,0,7.62c0,0.23,0,0.46,0,0.72c3.92,0,7.77,0,11.65,0
		c0.01-0.14,0.03-0.24,0.03-0.34c0-2.99,0.01-5.97-0.02-8.96c-0.01-1.2-0.28-2.37-0.72-3.49c-1.16-2.95-3.31-4.93-6.19-6.12
		c-3.38-1.4-6.87-1.56-10.42-0.83c-2.06,0.42-3.94,1.24-5.58,2.58c-2.71,2.22-3.91,5.15-3.92,8.6c-0.02,4.5-0.01,9,0,13.5
		c0,1.22,0.12,2.43,0.4,3.62c0.69,2.99,2.33,5.37,4.65,7.32c1.48,1.24,3.12,2.22,4.77,3.21c1.01,0.6,2.02,1.2,2.97,1.88
		c0.59,0.41,1.11,0.93,1.59,1.46c0.55,0.6,0.78,1.36,0.78,2.18c0,4.5,0,9-0.01,13.5c0,0.38-0.06,0.77-0.16,1.13
		c-0.22,0.73-0.8,1.1-1.62,1.09c-0.78-0.01-1.32-0.38-1.51-1.12c-0.1-0.38-0.14-0.8-0.14-1.2c-0.01-2.63-0.01-5.25-0.01-7.87
		C49.11,102.17,49.11,101.94,49.11,101.72z"/>
	<path class="st0" d="M98.99,101.67c-0.02,0.16-0.04,0.29-0.04,0.41c0,2.88-0.04,5.76,0.01,8.64c0.05,2.67,0.89,5.07,2.72,7.06
		c1.43,1.56,3.21,2.59,5.21,3.24c2.71,0.88,5.48,1,8.29,0.6c2.07-0.29,4.02-0.96,5.77-2.13c3.1-2.06,4.77-4.97,4.83-8.69
		c0.07-4.88,0.02-9.77,0.01-14.66c0-1.29-0.22-2.54-0.59-3.78c-0.81-2.74-2.43-4.93-4.66-6.65c-1.33-1.03-2.77-1.91-4.18-2.83
		c-1.02-0.66-2.09-1.25-3.09-1.94c-0.63-0.43-1.2-0.96-1.72-1.51c-0.57-0.6-0.88-1.35-0.88-2.21c0-4.59,0-9.17,0.01-13.76
		c0-0.42,0.1-0.85,0.25-1.24c0.21-0.57,0.68-0.85,1.3-0.87c0.98-0.04,1.63,0.46,1.8,1.44c0.07,0.4,0.08,0.81,0.08,1.21
		c0.01,2.5,0,4.99,0.01,7.49c0,0.25,0.02,0.49,0.03,0.72c1.11,0.13,11.17,0.08,11.66-0.06c0-0.84-0.02-1.69,0.01-2.54
		c0.01-0.35-0.1-0.6-0.36-0.83c-0.94-0.84-1.85-1.71-2.79-2.55c-5.18-4.63-10.67-8.85-16.62-12.45c-0.42-0.25-0.73-0.28-1.16-0.05
		c-3.9,2.12-5.88,5.41-5.92,9.82c-0.05,4.59-0.03,9.17,0,13.76c0.01,0.98,0.11,1.96,0.29,2.92c0.58,3.23,2.28,5.79,4.77,7.87
		c1.35,1.13,2.83,2.05,4.33,2.95c1.02,0.62,2.06,1.21,3.05,1.88c0.64,0.44,1.24,0.97,1.79,1.53c0.64,0.65,0.92,1.47,0.92,2.39
		c0,4.48,0,8.96-0.01,13.44c0,0.42-0.07,0.85-0.2,1.25c-0.22,0.69-0.82,1.02-1.61,1c-0.73-0.02-1.26-0.36-1.45-1.03
		c-0.12-0.4-0.16-0.84-0.16-1.26c-0.01-2.65-0.01-5.29-0.01-7.94c0-0.23-0.02-0.45-0.03-0.69
		C106.72,101.67,102.87,101.67,98.99,101.67z"/>
	<path class="st0" d="M15.13,71.2c0.04,0.03,0.08,0.06,0.12,0.09c0.19-0.2,0.37-0.41,0.56-0.61c3.46-3.55,7.07-6.93,10.89-10.09
		c5.32-4.41,10.96-8.35,17.09-11.56c7.95-4.16,16.32-6.88,25.31-7.54c4.47-0.33,8.91-0.12,13.33,0.61
		c5.67,0.93,11.1,2.67,16.32,5.04c6.68,3.03,12.81,6.96,18.58,11.46c5.11,3.98,9.85,8.36,14.36,13.01c0.2,0.21,0.41,0.41,0.63,0.63
		c2.67-1.47,5.28-2.91,7.94-4.37c-0.18-0.19-0.31-0.35-0.46-0.5c-0.81-0.82-1.62-1.64-2.44-2.45c-6.36-6.28-13.1-12.1-20.49-17.15
		c-5.3-3.62-10.85-6.77-16.79-9.23c-7.34-3.03-14.94-4.87-22.92-4.98c-3.81-0.05-7.58,0.28-11.32,1.02
		c-5.86,1.15-11.39,3.22-16.66,6.01c-6.67,3.52-12.63,8.02-18.17,13.1c-5.47,5.02-10.39,10.54-14.99,16.36
		C15.72,70.43,15.42,70.81,15.13,71.2z"/>
	<path class="st0" d="M54.91,145.18c0-0.53-0.04-0.94,0.01-1.34c0.07-0.54-0.19-0.8-0.64-1.02c-2.44-1.17-5-1.58-7.66-1.14
		c-3.9,0.64-6.75,2.73-8.34,6.4c-0.79,1.81-1.02,3.73-0.82,5.7c0.27,2.76,1.37,5.13,3.43,7.02c1.84,1.69,4.04,2.58,6.53,2.77
		c2.71,0.21,5.25-0.35,7.64-1.66c0.33-0.18,0.49-0.38,0.49-0.79c-0.02-2.52-0.01-5.03-0.01-7.55c0-0.16-0.03-0.33-0.05-0.49
		c-2.4,0-4.76,0-7.15,0c0.01,0.54-0.08,1.04,0.07,1.61c1.78,0,3.54,0,5.32,0c0,2.05,0,4.03,0,6.03c-0.3,0.14-0.58,0.29-0.87,0.42
		c-1.77,0.73-3.61,1-5.51,0.76c-3.4-0.42-5.88-2.13-7.32-5.27c-0.78-1.69-1.01-3.49-0.75-5.32c0.52-3.77,2.51-6.44,6.19-7.63
		c3.07-0.99,6.02-0.52,8.79,1.11C54.43,144.89,54.61,145,54.91,145.18z"/>
	<path class="st0" d="M108.51,145.08c0-0.47-0.04-0.85,0.01-1.22c0.08-0.54-0.19-0.81-0.63-1.03c-1.6-0.83-3.3-1.24-5.1-1.3
		c-1.14-0.04-2.26,0.1-3.33,0.51c-1.68,0.65-2.84,1.8-3.29,3.56c-0.15,0.61-0.2,1.27-0.2,1.9c0.01,1.78,0.77,3.19,2.3,4.1
		c0.72,0.43,1.52,0.77,2.32,1.06c0.98,0.35,2.01,0.57,2.99,0.91c0.76,0.26,1.51,0.57,2.23,0.94c0.72,0.37,1.24,0.98,1.53,1.74
		c0.85,2.19-0.2,4.53-2.41,5.31c-0.5,0.17-1.03,0.28-1.56,0.33c-2.35,0.19-4.52-0.39-6.51-1.66c-0.15-0.09-0.3-0.17-0.5-0.29
		c0,0.7,0,1.29,0,1.86c0.05,0.05,0.08,0.09,0.11,0.12c0.05,0.04,0.1,0.08,0.16,0.11c2.55,1.44,5.28,1.95,8.14,1.34
		c2.68-0.57,4.29-2.35,4.57-5c0.23-2.18-0.42-4.02-2.36-5.23c-0.63-0.39-1.32-0.71-2.01-0.96c-0.98-0.35-2-0.58-2.99-0.92
		c-0.86-0.3-1.74-0.59-2.54-1.03c-1.32-0.72-1.8-1.93-1.7-3.39c0.09-1.42,0.76-2.46,2.04-3.09c0.74-0.36,1.54-0.52,2.35-0.53
		c2.06-0.04,3.96,0.5,5.73,1.53C108.06,144.84,108.24,144.94,108.51,145.08z"/>
	<path class="st0" d="M112.78,161.9c0.54,0.27,1.07,0.58,1.64,0.81c2.32,0.91,4.7,1.24,7.14,0.57c2.06-0.56,3.49-1.83,4.05-3.95
		c0.22-0.81,0.25-1.64,0.16-2.48c-0.18-1.55-0.9-2.8-2.23-3.63c-0.66-0.41-1.38-0.76-2.12-1.04c-0.98-0.36-2-0.59-2.99-0.92
		c-0.84-0.29-1.7-0.58-2.48-0.99c-1.35-0.71-1.88-1.93-1.77-3.42c0.1-1.49,0.82-2.57,2.21-3.18c0.71-0.31,1.47-0.45,2.24-0.46
		c2.03-0.03,3.92,0.5,5.67,1.52c0.18,0.1,0.36,0.21,0.54,0.31c0.04-0.07,0.08-0.11,0.08-0.14c0.01-0.36-0.02-0.73,0.02-1.08
		c0.05-0.48-0.15-0.73-0.56-0.95c-2.29-1.17-4.71-1.61-7.26-1.16c-2.67,0.48-4.33,2.15-4.67,4.73c-0.32,2.49,0.57,4.31,2.69,5.45
		c0.49,0.26,1,0.49,1.52,0.67c1.09,0.36,2.21,0.64,3.3,1.02c0.78,0.27,1.56,0.58,2.29,0.96c0.82,0.43,1.39,1.13,1.63,2.04
		c0.46,1.76,0.07,4.28-2.81,5.1c-0.41,0.12-0.83,0.2-1.25,0.23c-2.35,0.18-4.52-0.39-6.51-1.66c-0.15-0.1-0.31-0.17-0.51-0.29
		C112.78,160.64,112.78,161.23,112.78,161.9z"/>
	<path class="st0" d="M62.25,161.65c0-3.36,0-6.62,0-9.88c0-3.28,0-6.56,0-9.88c-0.62,0-1.16,0-1.7,0
		c-0.16,0.75-0.13,20.89,0.03,21.35c4.08,0,8.17,0,12.27,0c0-0.54,0-1.04,0-1.6C69.33,161.65,65.84,161.65,62.25,161.65z"/>
	<path class="st0" d="M118.23,133.07c0.6-0.85,1.16-1.63,1.71-2.42c0.04,0.01,0.08,0.03,0.13,0.04c0,1.25,0,2.49,0,3.76
		c0.2,0.02,0.35,0.05,0.49,0.04c0.14,0,0.29-0.03,0.44-0.04c0-1.88,0-3.71,0-5.54c-0.61-0.17-1.01-0.02-1.31,0.52
		c-0.34,0.59-0.77,1.12-1.16,1.68c-0.08,0.12-0.14,0.25-0.24,0.43c-0.7-0.99-1.29-1.83-1.9-2.69c-0.18,0-0.38,0-0.57,0
		c-0.1,0-0.2,0.02-0.33,0.03c0,1.86,0,3.71,0,5.56c0.31,0,0.57,0,0.9,0c0-0.47,0-0.89,0-1.31c0-0.41,0-0.81,0-1.22
		c0-0.41,0.01-0.82,0.02-1.23c0.04-0.01,0.08-0.02,0.13-0.02C117.08,131.46,117.63,132.23,118.23,133.07z"/>
	<path class="st0" d="M43.88,130.7c0.04-0.02,0.09-0.03,0.13-0.05c0.56,0.79,1.12,1.58,1.72,2.42c0.6-0.85,1.15-1.64,1.71-2.43
		c0.05,0.01,0.09,0.03,0.14,0.04c0,1.26,0,2.52,0,3.79c0.35,0,0.62,0,0.87,0c0.13-0.72,0.11-5.08-0.02-5.55
		c-0.58-0.2-0.97,0.01-1.25,0.54c-0.15,0.28-0.36,0.53-0.54,0.79c-0.28,0.39-0.57,0.79-0.89,1.25c-0.51-0.72-1.01-1.36-1.42-2.05
		c-0.33-0.55-0.73-0.71-1.37-0.5c0.01,1.84-0.02,3.68,0.02,5.51c0.34,0,0.6,0,0.9,0c0-0.67,0-1.29,0-1.9
		C43.88,131.93,43.88,131.32,43.88,130.7z"/>
	<path class="st0" d="M76.68,128.9c0,0.39,0,0.73,0,1.07c-0.01,0.83,0.01,1.67-0.03,2.5c-0.05,0.82-0.53,1.24-1.33,1.25
		c-0.81,0.01-1.27-0.38-1.4-1.18c-0.04-0.27-0.06-0.55-0.06-0.83c-0.01-0.77,0-1.54-0.01-2.3c0-0.16-0.03-0.33-0.05-0.5
		c-0.31,0-0.57,0-0.9,0c0,0.54-0.01,1.05,0,1.56c0.01,0.75-0.01,1.5,0.05,2.24c0.09,0.99,0.66,1.59,1.61,1.82
		c1.06,0.26,2.16-0.07,2.65-0.82c0.15-0.23,0.26-0.5,0.31-0.76c0.23-1.33,0.08-2.67,0.12-4.04C77.31,128.9,77.04,128.9,76.68,128.9z
		"/>
	<path class="st0" d="M111.14,128.89c0,1.88,0,3.72,0,5.57c1.14,0,2.24,0,3.35,0c0-0.28,0-0.52,0-0.84c-0.82,0-1.59,0-2.36,0
		c0-0.59,0-1.08,0-1.67c0.69,0,1.34,0,2.02,0c-0.02-0.32-0.03-0.54-0.04-0.81c-0.7,0-1.33,0-1.98,0c0-0.49,0-0.92,0-1.42
		c0.78,0,1.52,0,2.28,0c0-0.31,0-0.55,0-0.83C113.31,128.89,112.26,128.89,111.14,128.89z"/>
	<path class="st0" d="M101.54,134.19c0.89,0.4,1.75,0.58,2.65,0.23c0.61-0.23,0.95-0.69,1.01-1.36c0.06-0.69-0.19-1.22-0.82-1.52
		c-0.32-0.16-0.67-0.26-1.01-0.39c-0.22-0.08-0.45-0.15-0.65-0.25c-0.25-0.12-0.37-0.34-0.34-0.63c0.02-0.29,0.18-0.49,0.45-0.55
		c0.27-0.05,0.55-0.09,0.81-0.04c0.43,0.08,0.85,0.23,1.27,0.36c0-0.31,0-0.6,0-0.88c-0.77-0.37-1.53-0.51-2.33-0.3
		c-0.68,0.18-1.12,0.68-1.19,1.35c-0.08,0.7,0.22,1.22,0.88,1.55c0.25,0.12,0.52,0.2,0.78,0.29c0.22,0.08,0.45,0.13,0.67,0.22
		c0.42,0.18,0.55,0.41,0.51,0.78c-0.04,0.35-0.28,0.62-0.69,0.64c-0.4,0.01-0.8-0.06-1.19-0.14c-0.26-0.05-0.5-0.19-0.79-0.3
		C101.54,133.6,101.54,133.87,101.54,134.19z"/>
	<path class="st0" d="M122.14,134.19c0.86,0.39,1.7,0.57,2.58,0.26c0.64-0.22,1.02-0.68,1.08-1.37c0.07-0.73-0.2-1.23-0.86-1.56
		c-0.32-0.16-0.68-0.25-1.01-0.38c-0.24-0.09-0.49-0.16-0.7-0.3c-0.41-0.28-0.36-0.91,0.11-1.09c0.27-0.1,0.59-0.13,0.87-0.08
		c0.43,0.07,0.85,0.23,1.31,0.37c0-0.29,0-0.58,0-0.88c-0.77-0.38-1.54-0.52-2.36-0.31c-0.68,0.18-1.11,0.69-1.17,1.36
		c-0.06,0.69,0.2,1.19,0.84,1.51c0.26,0.13,0.55,0.21,0.83,0.32c0.24,0.08,0.49,0.15,0.72,0.25c0.37,0.17,0.48,0.4,0.44,0.76
		c-0.04,0.35-0.26,0.56-0.57,0.6c-0.33,0.04-0.68,0.03-1-0.04c-0.37-0.07-0.71-0.23-1.1-0.36
		C122.14,133.59,122.14,133.86,122.14,134.19z"/>
	<path class="st0" d="M38.42,134.19c0.81,0.4,1.65,0.55,2.53,0.28c0.67-0.21,1.07-0.74,1.12-1.41c0.06-0.72-0.24-1.25-0.89-1.54
		c-0.33-0.15-0.68-0.24-1.02-0.37c-0.22-0.08-0.45-0.14-0.65-0.27c-0.45-0.29-0.39-0.94,0.11-1.12c0.27-0.09,0.59-0.11,0.87-0.06
		c0.43,0.07,0.85,0.23,1.27,0.35c0-0.3,0-0.59,0-0.86c-0.87-0.42-1.68-0.52-2.39-0.31c-0.64,0.19-1.06,0.69-1.13,1.32
		c-0.08,0.72,0.19,1.23,0.86,1.56c0.27,0.13,0.56,0.21,0.84,0.31c0.24,0.08,0.49,0.16,0.72,0.26c0.31,0.13,0.44,0.38,0.42,0.71
		c-0.03,0.35-0.23,0.57-0.55,0.62c-0.31,0.05-0.64,0.06-0.94,0c-0.39-0.08-0.76-0.24-1.18-0.38
		C38.42,133.58,38.42,133.87,38.42,134.19z"/>
	<path class="st0" d="M95.23,129.17c-0.74-0.37-1.5-0.51-2.3-0.31c-0.7,0.17-1.13,0.64-1.21,1.32c-0.09,0.76,0.18,1.26,0.89,1.6
		c0.27,0.13,0.56,0.2,0.84,0.3c0.24,0.08,0.49,0.16,0.72,0.27c0.27,0.13,0.42,0.37,0.39,0.68c-0.03,0.31-0.19,0.55-0.48,0.61
		c-0.33,0.06-0.68,0.09-1,0.03c-0.39-0.07-0.76-0.24-1.18-0.37c0,0.31,0,0.6,0,0.92c0.83,0.38,1.67,0.55,2.54,0.26
		c0.67-0.23,1.04-0.72,1.09-1.43c0.05-0.69-0.24-1.21-0.87-1.5c-0.33-0.15-0.68-0.25-1.02-0.38c-0.22-0.08-0.48-0.13-0.64-0.27
		c-0.16-0.14-0.29-0.37-0.32-0.57c-0.03-0.27,0.14-0.5,0.42-0.57c0.26-0.06,0.55-0.11,0.81-0.06c0.43,0.08,0.85,0.23,1.31,0.37
		C95.23,129.79,95.23,129.52,95.23,129.17z"/>
	<path class="st0" d="M62.92,134.48c0-1.62,0-3.16,0-4.76c0.64,0,1.21,0,1.8,0c0-0.31,0-0.55,0-0.82c-1.55,0-3.07,0-4.61,0
		c0,0.29,0,0.55,0,0.87c0.63,0,1.19,0,1.82,0c0,1.6,0,3.15,0,4.71C62.27,134.48,62.54,134.48,62.92,134.48z"/>
	<path class="st0" d="M105.67,129.76c0.64,0,1.21,0,1.85,0c0,1.61,0,3.15,0,4.72c0.34,0,0.62,0,0.96,0c0-0.56,0-1.09,0-1.61
		c0-0.51-0.01-1.03,0-1.54c0.02-0.52-0.09-1.05,0.1-1.63c0.58,0,1.15,0,1.72,0c0.01-0.19,0.03-0.32,0.03-0.44
		c0-0.12-0.03-0.24-0.04-0.35c-1.08-0.12-4.17-0.08-4.62,0.05C105.67,129.19,105.67,129.42,105.67,129.76z"/>
	<path class="st0" d="M98.48,131.11c-0.56-0.81-1.07-1.54-1.54-2.22c-0.39,0-0.7,0-1.09,0c0.12,0.2,0.21,0.34,0.3,0.47
		c0.39,0.56,0.75,1.14,1.19,1.67c0.5,0.61,0.73,1.26,0.65,2.05c-0.05,0.46,0,0.92,0.01,1.37c0.36,0,0.62,0,0.94,0
		c0-0.66,0.02-1.28-0.01-1.89c-0.02-0.43,0.1-0.78,0.36-1.12c0.51-0.68,0.98-1.39,1.47-2.09c0.09-0.13,0.16-0.28,0.27-0.47
		c-0.38,0-0.69,0-1.03,0C99.51,129.6,99.02,130.32,98.48,131.11z"/>
	<path class="st0" d="M80.15,129.72c0.07,1.65-0.04,3.2,0.06,4.75c0.33,0,0.6,0,0.94,0c0-1.58,0-3.12,0-4.74c0.65,0,1.24,0,1.84,0
		c0-0.32,0-0.56,0-0.83c-1.56,0-3.08,0-4.64,0c0,0.28,0,0.52,0,0.82C78.95,129.72,79.52,129.72,80.15,129.72z"/>
	<path class="st0" d="M148.85,60.75c-1.14,0.62-2.28,1.23-3.42,1.86c-1.48,0.81-2.95,1.62-4.47,2.46c-0.25-0.24-0.49-0.48-0.73-0.72
		c-6.65-6.87-13.89-13.07-21.74-18.53c-5.72-3.98-11.77-7.38-18.26-9.97c-4.47-1.78-9.07-3.11-13.82-3.87
		c-4.14-0.67-8.31-0.87-12.5-0.59c-8.39,0.55-16.22,3.02-23.63,6.93c-0.27,0.15-0.55,0.28-0.88,0.34c0.09-0.08,0.17-0.16,0.27-0.23
		c5.71-4,11.81-7.24,18.46-9.37c4.14-1.33,8.37-2.18,12.71-2.5c7.47-0.55,14.76,0.4,21.9,2.65c6.61,2.08,12.78,5.09,18.66,8.73
		c6.64,4.11,12.79,8.88,18.55,14.14c2.85,2.6,5.58,5.34,8.37,8.01c0.18,0.18,0.36,0.36,0.53,0.54
		C148.85,60.66,148.85,60.7,148.85,60.75z"/>
	<path class="st0" d="M95.85,121.13c-4.02,0-7.96,0-11.99,0c-0.23-4.03-0.45-8.06-0.68-12.13c-1.69,0-3.32,0-5,0
		c-0.23,4.05-0.46,8.07-0.69,12.13c-4,0-7.95,0-11.99,0c2.54-22.76,5.07-45.51,7.61-68.29c5.05,0,10.06,0,15.14,0
		C90.77,75.59,93.31,98.34,95.85,121.13z M82.68,99.65c-0.62-11.31-1.23-22.55-1.85-33.78c0-0.06-0.03-0.12-0.05-0.18
		c0-0.01-0.03-0.03-0.04-0.03c-0.02,0-0.04,0-0.14,0.02c-0.65,11.31-1.3,22.63-1.95,33.98C80.03,99.65,81.3,99.65,82.68,99.65z"/>
	<path class="st0" d="M49.11,101.72c0,0.21,0,0.44,0,0.67c0,2.63-0.01,5.25,0.01,7.87c0,0.4,0.04,0.81,0.14,1.2
		c0.2,0.75,0.73,1.11,1.51,1.12c0.82,0.01,1.4-0.36,1.62-1.09c0.11-0.36,0.16-0.76,0.16-1.13c0.01-4.5,0.01-9,0.01-13.5
		c0-0.82-0.23-1.58-0.78-2.18c-0.49-0.53-1.01-1.05-1.59-1.46c-0.96-0.67-1.97-1.27-2.97-1.88c-1.65-0.99-3.29-1.97-4.77-3.21
		c-2.32-1.95-3.96-4.33-4.65-7.32c-0.28-1.19-0.39-2.4-0.4-3.62c-0.01-4.5-0.02-9,0-13.5c0.01-3.45,1.21-6.38,3.92-8.6
		c1.63-1.34,3.52-2.16,5.58-2.58c3.55-0.73,7.05-0.57,10.42,0.83c2.88,1.2,5.03,3.17,6.19,6.12c0.44,1.12,0.71,2.29,0.72,3.49
		c0.02,2.99,0.01,5.97,0.02,8.96c0,0.1-0.02,0.2-0.03,0.34c-3.88,0-7.73,0-11.65,0c0-0.26,0-0.49,0-0.72c0-2.54,0-5.08,0-7.62
		c0-0.4-0.03-0.81-0.11-1.21c-0.18-0.87-0.75-1.33-1.62-1.34c-0.85-0.01-1.38,0.4-1.59,1.27c-0.08,0.33-0.12,0.67-0.12,1.01
		c-0.01,4.48,0,8.96-0.01,13.44c0,0.97,0.32,1.82,1,2.48c0.59,0.58,1.23,1.13,1.91,1.59c0.97,0.66,2.01,1.21,2.99,1.85
		c1.32,0.86,2.67,1.69,3.92,2.65c2.38,1.83,4.07,4.17,4.84,7.11c0.3,1.16,0.47,2.34,0.48,3.54c0,4.8,0.04,9.6-0.01,14.4
		c-0.04,3.85-1.78,6.82-5.02,8.9c-1.68,1.08-3.53,1.7-5.49,1.99c-2.96,0.44-5.87,0.29-8.71-0.7c-1.53-0.53-2.92-1.3-4.13-2.38
		c-2.06-1.86-3.18-4.19-3.41-6.94c-0.06-0.64-0.07-1.28-0.07-1.92c-0.01-2.41,0-4.82,0-7.23c0-0.23,0-0.46,0-0.68
		C37.89,101.6,48.35,101.57,49.11,101.72z"/>
	<path class="st0" d="M98.99,101.67c3.88,0,7.73,0,11.65,0c0.01,0.24,0.03,0.46,0.03,0.69c0,2.65-0.01,5.29,0.01,7.94
		c0,0.42,0.05,0.86,0.16,1.26c0.2,0.67,0.72,1.01,1.45,1.03c0.79,0.02,1.39-0.31,1.61-1c0.13-0.4,0.19-0.83,0.2-1.25
		c0.02-4.48,0.01-8.96,0.01-13.44c0-0.92-0.28-1.74-0.92-2.39c-0.55-0.56-1.15-1.09-1.79-1.53c-0.98-0.67-2.02-1.27-3.05-1.88
		c-1.5-0.9-2.99-1.82-4.33-2.95c-2.49-2.08-4.19-4.65-4.77-7.87c-0.17-0.96-0.28-1.95-0.29-2.92c-0.03-4.59-0.05-9.17,0-13.76
		c0.05-4.41,2.02-7.71,5.92-9.82c0.43-0.23,0.74-0.21,1.16,0.05c5.95,3.6,11.44,7.82,16.62,12.45c0.94,0.84,1.85,1.71,2.79,2.55
		c0.26,0.23,0.37,0.48,0.36,0.83c-0.02,0.85-0.01,1.7-0.01,2.54c-0.49,0.14-10.55,0.19-11.66,0.06c-0.01-0.23-0.03-0.48-0.03-0.72
		c0-2.5,0-4.99-0.01-7.49c0-0.4-0.02-0.81-0.08-1.21c-0.16-0.98-0.81-1.48-1.8-1.44c-0.61,0.03-1.08,0.31-1.3,0.87
		c-0.15,0.39-0.25,0.82-0.25,1.24c-0.02,4.59-0.01,9.17-0.01,13.76c0,0.85,0.31,1.6,0.88,2.21c0.53,0.55,1.1,1.08,1.72,1.51
		c1,0.69,2.07,1.27,3.09,1.94c1.41,0.92,2.85,1.8,4.18,2.83c2.23,1.72,3.85,3.91,4.66,6.65c0.37,1.24,0.59,2.49,0.59,3.78
		c0.01,4.89,0.06,9.77-0.01,14.66c-0.06,3.72-1.73,6.63-4.83,8.69c-1.75,1.17-3.7,1.83-5.77,2.13c-2.8,0.4-5.58,0.27-8.29-0.6
		c-2-0.65-3.78-1.67-5.21-3.24c-1.83-2-2.67-4.39-2.72-7.06c-0.05-2.88-0.01-5.76-0.01-8.64C98.96,101.96,98.98,101.84,98.99,101.67
		z"/>
	<path class="st0" d="M31.01,53.69c5.54-5.09,11.5-9.58,18.17-13.1c5.27-2.79,10.8-4.85,16.66-6.01c3.74-0.74,7.51-1.07,11.32-1.02
		c7.98,0.11,15.58,1.95,22.92,4.98c5.94,2.45,11.49,5.61,16.79,9.23c7.39,5.05,14.13,10.87,20.49,17.15
		c0.82,0.81,1.63,1.63,2.44,2.45c0.15,0.15,0.29,0.31,0.46,0.5c-2.66,1.46-5.27,2.9-7.94,4.37c-0.22-0.22-0.42-0.42-0.63-0.63
		c-4.51-4.65-9.25-9.03-14.36-13.01c-5.77-4.5-11.9-8.43-18.58-11.46c-5.23-2.37-10.65-4.11-16.32-5.04
		c-4.42-0.73-8.86-0.93-13.33-0.61c-8.99,0.65-17.37,3.38-25.31,7.54c-6.13,3.21-11.77,7.15-17.09,11.56
		c-3.81,3.16-7.43,6.54-10.89,10.09c-0.19,0.2-0.37,0.41-0.56,0.61c-0.04-0.03-0.08-0.06-0.12-0.09c0.3-0.38,0.59-0.77,0.89-1.15
		C20.62,64.23,25.54,58.71,31.01,53.69"/>
	<path class="st0" d="M54.91,145.18c-0.3-0.18-0.48-0.29-0.66-0.39c-2.77-1.62-5.72-2.1-8.79-1.11c-3.68,1.19-5.67,3.86-6.19,7.63
		c-0.25,1.83-0.02,3.63,0.75,5.32c1.44,3.13,3.92,4.85,7.32,5.27c1.9,0.24,3.74-0.03,5.51-0.76c0.29-0.12,0.57-0.27,0.87-0.42
		c0-2.01,0-3.98,0-6.03c-1.79,0-3.54,0-5.32,0c-0.15-0.57-0.06-1.07-0.07-1.61c2.4,0,4.75,0,7.15,0c0.02,0.16,0.05,0.32,0.05,0.49
		c0,2.52-0.01,5.03,0.01,7.55c0,0.41-0.16,0.61-0.49,0.79c-2.38,1.31-4.93,1.86-7.64,1.66c-2.48-0.19-4.68-1.08-6.53-2.77
		c-2.06-1.88-3.15-4.25-3.43-7.02c-0.2-1.97,0.04-3.88,0.82-5.7c1.59-3.66,4.44-5.76,8.34-6.4c2.66-0.43,5.22-0.03,7.66,1.14
		c0.45,0.22,0.71,0.48,0.64,1.02C54.87,144.24,54.91,144.65,54.91,145.18z"/>
	<path class="st0" d="M94.08,163.27c-0.68,0-1.28,0-1.91,0c-0.87-2.11-1.74-4.21-2.62-6.34c-3.5,0-6.99,0-10.55,0
		c-0.43,1.02-0.86,2.08-1.3,3.14c-0.44,1.06-0.88,2.12-1.32,3.2c-0.59,0-1.16,0-1.8,0c0.07-0.21,0.12-0.38,0.19-0.55
		c2.81-6.77,5.63-13.54,8.43-20.31c0.18-0.43,0.41-0.57,0.85-0.55c1.35,0.04,1.01-0.17,1.5,1c2.76,6.56,5.5,13.13,8.25,19.7
		C93.89,162.76,93.96,162.98,94.08,163.27z M79.7,155.22c3.1,0,6.08,0,9.14,0c-1.52-3.74-3.01-7.42-4.56-11.23
		C82.73,147.78,81.23,151.46,79.7,155.22z"/>
	<path class="st0" d="M108.51,145.08c-0.27-0.15-0.45-0.25-0.62-0.35c-1.77-1.04-3.67-1.58-5.73-1.53
		c-0.82,0.02-1.61,0.17-2.35,0.53c-1.28,0.63-1.95,1.68-2.04,3.09c-0.1,1.46,0.38,2.68,1.7,3.39c0.8,0.44,1.67,0.74,2.54,1.03
		c0.99,0.34,2.01,0.57,2.99,0.92c0.7,0.25,1.38,0.57,2.01,0.96c1.94,1.21,2.59,3.05,2.36,5.23c-0.29,2.66-1.89,4.43-4.57,5
		c-2.87,0.61-5.59,0.1-8.14-1.34c-0.05-0.03-0.11-0.07-0.16-0.11c-0.03-0.03-0.06-0.06-0.11-0.12c0-0.57,0-1.16,0-1.86
		c0.2,0.11,0.35,0.19,0.5,0.29c1.99,1.27,4.16,1.85,6.51,1.66c0.52-0.04,1.06-0.15,1.56-0.33c2.21-0.78,3.26-3.11,2.41-5.31
		c-0.3-0.76-0.82-1.37-1.53-1.74c-0.71-0.37-1.47-0.68-2.23-0.94c-0.99-0.34-2.01-0.56-2.99-0.91c-0.8-0.29-1.59-0.63-2.32-1.06
		c-1.53-0.91-2.29-2.32-2.3-4.1c0-0.63,0.04-1.29,0.2-1.9c0.45-1.77,1.61-2.92,3.29-3.56c1.07-0.41,2.19-0.55,3.33-0.51
		c1.79,0.06,3.5,0.47,5.1,1.3c0.44,0.23,0.7,0.49,0.63,1.03C108.47,144.23,108.51,144.62,108.51,145.08z"/>
	<path class="st0" d="M112.78,161.9c0-0.67,0-1.26,0-1.95c0.21,0.12,0.37,0.19,0.51,0.29c1.99,1.27,4.16,1.84,6.51,1.66
		c0.42-0.03,0.84-0.12,1.25-0.23c2.88-0.82,3.28-3.34,2.81-5.1c-0.24-0.91-0.81-1.61-1.63-2.04c-0.73-0.39-1.51-0.7-2.29-0.96
		c-1.09-0.37-2.2-0.65-3.3-1.02c-0.52-0.17-1.03-0.4-1.52-0.67c-2.13-1.14-3.02-2.96-2.69-5.45c0.33-2.58,1.99-4.25,4.67-4.73
		c2.54-0.45,4.96-0.01,7.26,1.16c0.41,0.21,0.61,0.47,0.56,0.95c-0.04,0.36-0.01,0.72-0.02,1.08c0,0.03-0.04,0.07-0.08,0.14
		c-0.18-0.1-0.36-0.2-0.54-0.31c-1.75-1.02-3.63-1.56-5.67-1.52c-0.77,0.01-1.53,0.15-2.24,0.46c-1.39,0.61-2.11,1.69-2.21,3.18
		c-0.1,1.49,0.43,2.71,1.77,3.42c0.78,0.42,1.64,0.7,2.48,0.99c0.99,0.34,2.01,0.56,2.99,0.92c0.73,0.27,1.45,0.62,2.12,1.04
		c1.33,0.83,2.05,2.08,2.23,3.63c0.1,0.83,0.07,1.66-0.16,2.48c-0.57,2.11-2,3.39-4.05,3.95c-2.44,0.67-4.82,0.34-7.14-0.57
		C113.85,162.48,113.32,162.16,112.78,161.9z"/>
	<path class="st0" d="M62.25,161.65c3.59,0,7.08,0,10.6,0c0,0.56,0,1.06,0,1.6c-4.11,0-8.19,0-12.27,0
		c-0.15-0.46-0.18-20.6-0.03-21.35c0.53,0,1.07,0,1.7,0c0,3.32,0,6.6,0,9.88C62.25,155.03,62.25,158.3,62.25,161.65z"/>
	<path class="st0" d="M118.23,133.07c-0.6-0.84-1.15-1.61-1.69-2.38c-0.04,0.01-0.08,0.01-0.13,0.02c-0.01,0.41-0.02,0.82-0.02,1.23
		c0,0.41,0,0.81,0,1.22c0,0.42,0,0.84,0,1.31c-0.33,0-0.59,0-0.9,0c0-1.85,0-3.7,0-5.56c0.13-0.01,0.23-0.03,0.33-0.03
		c0.19,0,0.38,0,0.57,0c0.61,0.86,1.2,1.7,1.9,2.69c0.1-0.18,0.16-0.31,0.24-0.43c0.39-0.56,0.82-1.09,1.16-1.68
		c0.31-0.54,0.71-0.68,1.31-0.52c0,1.82,0,3.66,0,5.54c-0.16,0.02-0.3,0.04-0.44,0.04c-0.14,0-0.29-0.02-0.49-0.04
		c0-1.27,0-2.52,0-3.76c-0.04-0.02-0.08-0.03-0.13-0.04C119.38,131.43,118.83,132.22,118.23,133.07z"/>
	<path class="st0" d="M43.88,130.7c0,0.62,0,1.24,0,1.85c0,0.62,0,1.23,0,1.9c-0.3,0-0.56,0-0.9,0c-0.05-1.83-0.01-3.67-0.02-5.51
		c0.64-0.21,1.04-0.05,1.37,0.5c0.41,0.69,0.91,1.33,1.42,2.05c0.33-0.46,0.61-0.85,0.89-1.25c0.19-0.26,0.4-0.51,0.54-0.79
		c0.28-0.53,0.67-0.74,1.25-0.54c0.13,0.46,0.15,4.83,0.02,5.55c-0.26,0-0.52,0-0.87,0c0-1.27,0-2.53,0-3.79
		c-0.05-0.01-0.09-0.03-0.14-0.04c-0.56,0.79-1.12,1.58-1.71,2.43c-0.6-0.84-1.16-1.64-1.72-2.42
		C43.97,130.66,43.93,130.68,43.88,130.7z"/>
	<path class="st0" d="M89.18,131.52c0.01,1.65-1.25,2.93-2.89,2.94c-1.64,0.01-2.93-1.25-2.94-2.89c-0.02-1.63,1.26-2.93,2.9-2.95
		C87.87,128.61,89.16,129.88,89.18,131.52z M84.32,131.54c0,1.14,0.84,2.03,1.92,2.04c1.09,0.01,1.94-0.87,1.94-2.01
		c0-1.15-0.83-2.03-1.92-2.04C85.19,129.51,84.33,130.4,84.32,131.54z"/>
	<path class="st0" d="M59.86,134.37c-0.32,0-0.51-0.02-0.7,0c-0.31,0.03-0.51-0.09-0.68-0.35c-0.32-0.5-0.69-0.98-0.99-1.49
		c-0.25-0.44-0.57-0.59-1.11-0.42c0,0.72,0,1.46,0,2.22c-0.34,0-0.61,0-0.88,0c-0.13-0.44-0.17-4.55-0.05-5.59
		c0.94,0,1.89-0.13,2.82,0.13c0.65,0.18,1.06,0.63,1.14,1.31c0.08,0.68-0.18,1.21-0.77,1.56c-0.13,0.07-0.26,0.13-0.44,0.23
		C58.74,132.74,59.26,133.49,59.86,134.37z M56.42,131.24c0.47,0,0.89,0.05,1.3-0.01c0.5-0.07,0.75-0.39,0.75-0.8
		c-0.01-0.41-0.28-0.73-0.77-0.79c-0.41-0.05-0.83-0.01-1.28-0.01C56.42,130.17,56.42,130.68,56.42,131.24z"/>
	<path class="st0" d="M76.68,128.9c0.36,0,0.63,0,0.96,0c-0.04,1.37,0.11,2.71-0.12,4.04c-0.05,0.27-0.16,0.54-0.31,0.76
		c-0.49,0.75-1.59,1.07-2.65,0.82c-0.95-0.23-1.53-0.84-1.61-1.82c-0.07-0.74-0.04-1.49-0.05-2.24c-0.01-0.51,0-1.01,0-1.56
		c0.33,0,0.6,0,0.9,0c0.02,0.17,0.05,0.34,0.05,0.5c0,0.77,0,1.53,0.01,2.3c0,0.28,0.02,0.56,0.06,0.83c0.12,0.81,0.59,1.2,1.4,1.18
		c0.8-0.01,1.28-0.43,1.33-1.25c0.05-0.83,0.03-1.66,0.03-2.5C76.69,129.63,76.68,129.29,76.68,128.9z"/>
	<path class="st0" d="M54.74,134.33c-0.36,0-0.65,0-1.01,0c-0.18-0.42-0.36-0.86-0.57-1.35c-0.73,0-1.45-0.01-2.17,0.01
		c-0.13,0.01-0.3,0.15-0.36,0.28c-0.17,0.32-0.28,0.67-0.44,1.05c-0.29,0-0.6,0-0.99,0c0.76-1.87,1.51-3.69,2.27-5.56
		c0.31,0,0.62,0,0.99,0C53.21,130.58,53.97,132.43,54.74,134.33z M52.85,132.16c-0.29-0.77-0.56-1.49-0.83-2.2
		c-0.04,0-0.08,0-0.13,0c-0.27,0.72-0.54,1.44-0.83,2.2C51.69,132.16,52.24,132.16,52.85,132.16z"/>
	<path class="st0" d="M72.42,134.34c-0.41,0-0.7,0-1.02,0c-0.18-0.44-0.36-0.87-0.55-1.36c-0.73,0-1.45,0-2.17,0
		c-0.24,0-0.33,0.14-0.4,0.33c-0.13,0.33-0.27,0.67-0.41,1.02c-0.31,0-0.6,0-0.99,0c0.77-1.89,1.53-3.73,2.28-5.58
		c0.33,0,0.62,0,0.98,0C70.88,130.58,71.63,132.42,72.42,134.34z M70.52,132.16c-0.29-0.77-0.56-1.48-0.83-2.2
		c-0.04,0-0.09,0-0.13,0c-0.27,0.72-0.54,1.44-0.82,2.19C69.37,132.16,69.91,132.16,70.52,132.16z"/>
	<path class="st0" d="M111.14,128.89c1.12,0,2.18,0,3.27,0c0,0.27,0,0.52,0,0.83c-0.77,0-1.5,0-2.28,0c0,0.49,0,0.93,0,1.42
		c0.65,0,1.28,0,1.98,0c0.02,0.27,0.03,0.49,0.04,0.81c-0.68,0-1.33,0-2.02,0c0,0.59,0,1.08,0,1.67c0.76,0,1.54,0,2.36,0
		c0,0.32,0,0.56,0,0.84c-1.1,0-2.2,0-3.35,0C111.14,132.62,111.14,130.78,111.14,128.89z"/>
	<path class="st0" d="M101.54,134.19c0-0.33,0-0.6,0-0.94c0.29,0.11,0.53,0.25,0.79,0.3c0.39,0.08,0.8,0.15,1.19,0.14
		c0.41-0.02,0.65-0.29,0.69-0.64c0.04-0.38-0.09-0.6-0.51-0.78c-0.21-0.09-0.45-0.15-0.67-0.22c-0.26-0.09-0.53-0.17-0.78-0.29
		c-0.67-0.33-0.96-0.85-0.88-1.55c0.07-0.67,0.51-1.17,1.19-1.35c0.8-0.21,1.56-0.07,2.33,0.3c0,0.28,0,0.57,0,0.88
		c-0.42-0.12-0.84-0.28-1.27-0.36c-0.26-0.05-0.55-0.01-0.81,0.04c-0.27,0.06-0.43,0.26-0.45,0.55c-0.02,0.29,0.09,0.51,0.34,0.63
		c0.21,0.1,0.43,0.17,0.65,0.25c0.34,0.13,0.69,0.23,1.01,0.39c0.63,0.3,0.88,0.83,0.82,1.52c-0.05,0.66-0.4,1.12-1.01,1.36
		C103.29,134.77,102.43,134.59,101.54,134.19z"/>
	<path class="st0" d="M122.14,134.19c0-0.33,0-0.6,0-0.92c0.38,0.13,0.73,0.29,1.1,0.36c0.32,0.07,0.68,0.08,1,0.04
		c0.31-0.04,0.53-0.25,0.57-0.6c0.04-0.36-0.07-0.59-0.44-0.76c-0.23-0.11-0.48-0.17-0.72-0.25c-0.28-0.1-0.57-0.18-0.83-0.32
		c-0.64-0.32-0.9-0.81-0.84-1.51c0.06-0.67,0.49-1.18,1.17-1.36c0.82-0.22,1.6-0.08,2.36,0.31c0,0.3,0,0.59,0,0.88
		c-0.46-0.13-0.88-0.29-1.31-0.37c-0.28-0.05-0.6-0.02-0.87,0.08c-0.47,0.18-0.52,0.8-0.11,1.09c0.21,0.14,0.46,0.21,0.7,0.3
		c0.34,0.13,0.69,0.22,1.01,0.38c0.67,0.33,0.93,0.83,0.86,1.56c-0.06,0.69-0.44,1.15-1.08,1.37
		C123.84,134.76,123,134.58,122.14,134.19z"/>
	<path class="st0" d="M38.42,134.19c0-0.32,0-0.6,0-0.91c0.41,0.14,0.79,0.3,1.18,0.38c0.3,0.06,0.64,0.05,0.94,0
		c0.31-0.05,0.52-0.28,0.55-0.62c0.03-0.34-0.11-0.58-0.42-0.71c-0.23-0.1-0.48-0.17-0.72-0.26c-0.28-0.1-0.57-0.18-0.84-0.31
		c-0.67-0.33-0.94-0.84-0.86-1.56c0.07-0.64,0.49-1.13,1.13-1.32c0.71-0.21,1.52-0.11,2.39,0.31c0,0.27,0,0.56,0,0.86
		c-0.43-0.13-0.84-0.28-1.27-0.35c-0.28-0.05-0.6-0.03-0.87,0.06c-0.5,0.18-0.56,0.82-0.11,1.12c0.19,0.13,0.43,0.19,0.65,0.27
		c0.34,0.13,0.69,0.22,1.02,0.37c0.65,0.3,0.94,0.82,0.89,1.54c-0.05,0.67-0.45,1.2-1.12,1.41
		C40.08,134.74,39.24,134.59,38.42,134.19z"/>
	<path class="st0" d="M95.23,129.17c0,0.34,0,0.61,0,0.88c-0.47-0.14-0.88-0.29-1.31-0.37c-0.26-0.05-0.55,0-0.81,0.06
		c-0.28,0.06-0.46,0.3-0.42,0.57c0.03,0.21,0.16,0.44,0.32,0.57c0.17,0.14,0.42,0.18,0.64,0.27c0.34,0.12,0.69,0.22,1.02,0.38
		c0.63,0.29,0.92,0.81,0.87,1.5c-0.05,0.71-0.42,1.21-1.09,1.43c-0.88,0.29-1.72,0.13-2.54-0.26c0-0.32,0-0.61,0-0.92
		c0.41,0.14,0.78,0.31,1.18,0.37c0.32,0.06,0.68,0.03,1-0.03c0.3-0.05,0.46-0.3,0.48-0.61c0.03-0.31-0.12-0.54-0.39-0.68
		c-0.23-0.11-0.48-0.18-0.72-0.27c-0.28-0.1-0.57-0.17-0.84-0.3c-0.71-0.34-0.98-0.84-0.89-1.6c0.08-0.68,0.5-1.15,1.21-1.32
		C93.74,128.66,94.49,128.81,95.23,129.17z"/>
	<path class="st0" d="M62.92,134.48c-0.38,0-0.65,0-0.99,0c0-1.57,0-3.11,0-4.71c-0.63,0-1.19,0-1.82,0c0-0.32,0-0.58,0-0.87
		c1.53,0,3.05,0,4.61,0c0,0.27,0,0.52,0,0.82c-0.59,0-1.16,0-1.8,0C62.92,131.32,62.92,132.86,62.92,134.48z"/>
	<path class="st0" d="M105.67,129.76c0-0.34,0-0.56,0-0.79c0.45-0.13,3.53-0.17,4.62-0.05c0.01,0.11,0.04,0.23,0.04,0.35
		c0,0.13-0.02,0.25-0.03,0.44c-0.57,0-1.14,0-1.72,0c-0.18,0.57-0.08,1.11-0.1,1.63c-0.02,0.51,0,1.03,0,1.54c0,0.53,0,1.06,0,1.61
		c-0.35,0-0.62,0-0.96,0c0-1.56,0-3.11,0-4.72C106.88,129.76,106.31,129.76,105.67,129.76z"/>
	<path class="st0" d="M98.48,131.11c0.55-0.8,1.04-1.51,1.53-2.23c0.34,0,0.65,0,1.03,0c-0.11,0.19-0.18,0.33-0.27,0.47
		c-0.48,0.7-0.96,1.41-1.47,2.09c-0.26,0.34-0.38,0.69-0.36,1.12c0.03,0.61,0.01,1.23,0.01,1.89c-0.32,0-0.58,0-0.94,0
		c-0.01-0.45-0.06-0.92-0.01-1.37c0.08-0.79-0.15-1.44-0.65-2.05c-0.43-0.52-0.8-1.11-1.19-1.67c-0.09-0.13-0.18-0.28-0.3-0.47
		c0.39,0,0.7,0,1.09,0C97.41,129.58,97.92,130.31,98.48,131.11z"/>
	<path class="st0" d="M80.15,129.72c-0.63,0-1.2,0-1.8,0c0-0.31,0-0.55,0-0.82c1.56,0,3.08,0,4.64,0c0,0.27,0,0.51,0,0.83
		c-0.6,0-1.19,0-1.84,0c0,1.62,0,3.16,0,4.74c-0.34,0-0.6,0-0.94,0C80.11,132.92,80.22,131.37,80.15,129.72z"/>
</g>
<rect x="158.24" y="22.36" class="st0" width="1" height="148"/>
<g>
	<defs>
		<path id="SVGID_1_" d="M158.74,184h242.28c6.63,0,12-5.37,12-12V12c0-6.63-5.37-12-12-12c0,0-149.78,0-242.28,0V184z"/>
	</defs>
	<clipPath id="SVGID_2_">
		<use xlink:href="#SVGID_1_"  style="overflow:visible;"/>
	</clipPath>
	<g class="st1">
		<g>
			<path class="st2" d="M146.74,172c0,6.63,5.37,12,12,12h242.28c6.63,0,12-5.37,12-12V12c0-6.63-5.37-12-12-12
				c0,0-149.78,0-242.28,0c-6.63,0-12,5.37-12,12V172z"/>
		</g>
	</g>
</g>
<g>
	<defs>
		<path id="SVGID_3_" d="M158.74,184H12c-6.63,0-12-5.37-12-12V12C0,5.37,5.37,0,12,0c0,0,54.24,0,146.74,0V184z"/>
	</defs>
	<clipPath id="SVGID_4_">
		<use xlink:href="#SVGID_3_"  style="overflow:visible;"/>
	</clipPath>
	<g class="st3">
		<g>
			<path class="st4" d="M170.74,172c0,6.63-5.37,12-12,12H12c-6.63,0-12-5.37-12-12V12C0,5.37,5.37,0,12,0c0,0,54.24,0,146.74,0"/>
		</g>
	</g>
</g>
<g>
	<path class="st5" d="M202.62,101.87L202.62,101.87l-27.29,39.14c-2.55-7.21-4.21-14.99-4.88-22.77l27.51-26.55
		C198.84,95.69,200.51,99.01,202.62,101.87 M198.07,73.49c-17.19,5.61-25.62,20.14-27.4,36.16l26.51-24.14
		c-0.11-1.83-0.11-3.89,0.11-6.07C197.4,77.49,197.73,75.66,198.07,73.49z"/>
	<path class="st6" d="M224.23,71.66 M257.62,49.8L257.62,49.8c-6.65-2.17-13.64-3.21-20.52-3.21l-14.31,23.12
		c5.54,1.49,10.87,3.89,15.64,7.32L257.62,49.8z M181.86,78.52c8.65-17.39,26.84-28.72,46.58-31.35l-12.98,21.17
		c-1-0.12-2.11-0.12-3.11-0.23C198.72,67.77,188.74,71.77,181.86,78.52z"/>
	<path class="st7" d="M227.11,112.44l0.53,0.11l-1.94,5c-1.15,0.38-2.21,0.68-3.18,0.92c-0.42,0.09-0.83,0.16-1.24,0.21
		c-0.41,0.06-0.78,0.08-1.14,0.08c-2.19,0-3.8-0.69-4.81-2.08c-1-1.38-1.51-3.6-1.51-6.66V93.64h-4.07v-0.52
		c1.59-0.48,2.84-1.35,3.75-2.59c0.92-1.25,1.38-2.74,1.38-4.48v-1.09c0-0.34-0.09-0.91-0.28-1.72l4.98-2.65V91h3.99
		c0.43,0,0.85-0.06,1.24-0.18c0.39-0.12,0.78-0.32,1.2-0.61l-1.46,3.86c-0.34-0.15-0.71-0.25-1.11-0.32l-1.7-0.11h-2.16v15.26
		c0,2.51,0.23,4.17,0.69,4.99c0.45,0.82,1.26,1.23,2.41,1.23c0.81,0,1.58-0.22,2.31-0.67c0.4-0.24,0.76-0.51,1.09-0.81
		C226.41,113.32,226.75,112.93,227.11,112.44"/>
	<path class="st7" d="M256.71,108.47L256.71,108.47l0.49,0.17l-2.84,9.66c-0.21,0-0.39-0.02-0.52-0.05h-0.8
		c-0.83,0-2.06,0.1-3.68,0.29c-1.62,0.19-2.82,0.29-3.61,0.29c-4.9,0-8.94-1.43-12.14-4.3c-3.2-2.86-4.79-6.48-4.79-10.86
		c0-3.97,1.4-7.33,4.21-10.05c2.81-2.72,6.32-4.07,10.55-4.07c3.3,0,6.06,0.81,8.27,2.43c2.21,1.61,3.83,4,4.86,7.15l-21.09,5.97
		c0.56,3.29,1.82,5.83,3.77,7.61c1.95,1.78,4.44,2.67,7.47,2.67c2.27,0,4.2-0.56,5.82-1.69
		C254.28,112.58,255.63,110.83,256.71,108.47 M250.06,98.24c-0.74-1.96-1.69-3.43-2.85-4.39c-1.16-0.95-2.57-1.43-4.22-1.43
		c-2.25,0-4.08,0.86-5.51,2.58c-1.42,1.72-2.13,4-2.13,6.83v0.53L250.06,98.24z"/>
	<path class="st7" d="M259.89,117.98v-0.49c1.02,0,1.76-0.33,2.19-0.99c0.43-0.65,0.64-1.79,0.64-3.39V96.92
		c0-1.71-0.25-3-0.76-3.89c-0.51-0.88-1.23-1.33-2.18-1.33h-0.11l-0.06-0.59l7.43-0.78c0.34,0.56,0.65,1.33,0.94,2.3
		c0.17,0.68,0.29,1.26,0.37,1.74c0.08,0.48,0.12,1.01,0.12,1.58c1.83-1.96,3.73-3.45,5.7-4.46c1.96-1.02,3.97-1.53,6.02-1.53
		c2.56,0,4.38,0.71,5.46,2.12c1.08,1.41,1.62,3.96,1.62,7.65v11.24c0,2.57,0.22,4.23,0.67,4.96c0.45,0.73,1.34,1.25,2.65,1.58v0.49
		h-12.23v-0.49c1.19-0.1,2.01-0.53,2.47-1.26c0.46-0.74,0.69-2.18,0.69-4.32v-11.85c0-2.54-0.33-4.26-0.99-5.16
		c-0.65-0.89-1.83-1.35-3.49-1.35c-1.07,0-2.17,0.28-3.3,0.82c-1.13,0.55-2.15,1.3-3.05,2.26c-0.77,0.83-1.34,1.83-1.69,3.02
		c-0.35,1.19-0.53,2.85-0.53,5v7.1c0,2.11,0.22,3.55,0.67,4.32c0.45,0.77,1.28,1.24,2.49,1.43v0.49H259.89z"/>
	<path class="st7" d="M307.68,112.44l0.54,0.11l-1.95,5c-1.15,0.38-2.21,0.68-3.18,0.92c-0.42,0.09-0.83,0.16-1.24,0.21
		c-0.41,0.06-0.78,0.08-1.14,0.08c-2.19,0-3.8-0.69-4.81-2.08c-1-1.38-1.51-3.6-1.51-6.66V93.64h-4.07v-0.52
		c1.59-0.48,2.84-1.35,3.75-2.59c0.92-1.25,1.38-2.74,1.38-4.48v-1.09c0-0.34-0.09-0.91-0.28-1.72l4.98-2.65V91h3.99
		c0.43,0,0.85-0.06,1.23-0.18c0.39-0.12,0.78-0.32,1.2-0.61l-1.46,3.86c-0.34-0.15-0.71-0.25-1.11-0.32l-1.7-0.11h-2.16v15.26
		c0,2.51,0.23,4.17,0.69,4.99c0.45,0.82,1.26,1.23,2.42,1.23c0.81,0,1.58-0.22,2.31-0.67c0.4-0.24,0.76-0.51,1.09-0.81
		C306.98,113.32,307.32,112.93,307.68,112.44"/>
	<path class="st7" d="M337.28,108.47L337.28,108.47l0.49,0.17l-2.84,9.66c-0.21,0-0.39-0.02-0.52-0.05h-0.8
		c-0.83,0-2.05,0.1-3.68,0.29c-1.62,0.19-2.82,0.29-3.61,0.29c-4.9,0-8.94-1.43-12.14-4.3c-3.2-2.86-4.79-6.48-4.79-10.86
		c0-3.97,1.4-7.33,4.21-10.05c2.81-2.72,6.32-4.07,10.55-4.07c3.3,0,6.06,0.81,8.27,2.43c2.21,1.61,3.84,4,4.86,7.15l-21.09,5.97
		c0.56,3.29,1.82,5.83,3.77,7.61c1.95,1.78,4.44,2.67,7.47,2.67c2.27,0,4.2-0.56,5.82-1.69
		C334.86,112.58,336.2,110.83,337.28,108.47 M330.63,98.24c-0.74-1.96-1.69-3.43-2.85-4.39c-1.16-0.95-2.57-1.43-4.22-1.43
		c-2.25,0-4.08,0.86-5.51,2.58c-1.42,1.72-2.13,4-2.13,6.83v0.53L330.63,98.24z"/>
	<path class="st7" d="M349.05,111.74c0,2.1,0.22,3.55,0.67,4.32c0.45,0.77,1.28,1.24,2.49,1.43v0.49h-11.75v-0.49
		c1.02,0,1.76-0.33,2.19-0.99c0.43-0.65,0.64-1.79,0.64-3.39V85.89c0-1.96-0.21-3.21-0.63-3.73c-0.39-0.53-1.12-0.86-2.21-0.97
		v-0.54l8.59-1.72v22.85l6.59-6.02c0.93-0.87,1.61-1.56,2.03-2.08c0.41-0.52,0.62-0.95,0.62-1.29c0-0.4-0.16-0.72-0.46-0.98
		c-0.25-0.25-0.65-0.45-1.22-0.59v-0.49h11.34v0.49c-2.01,0.74-3.91,1.71-5.68,2.91c-1.78,1.21-3.48,2.71-5.1,4.51
		c1.66,1.55,3.24,3.37,4.72,5.46c1.48,2.09,2.96,4.58,4.42,7.49l0.86,1.81c1.32,2.8,2.67,4.31,4.06,4.51v0.49h-11.83v-0.49
		c0.54-0.06,0.97-0.28,1.28-0.66c0.31-0.39,0.47-0.87,0.47-1.45c0-1.18-0.76-3.1-2.27-5.75c-1.51-2.65-3.46-5.3-5.85-7.96
		l-3.97,3.33V111.74z"/>
	<path class="st7" d="M371.06,117.81l-0.41-11.34l0.57-0.06c0.46,2.87,1.68,5.13,3.64,6.79c1.96,1.67,4.4,2.5,7.29,2.5
		c2.04,0,3.7-0.43,4.99-1.3c1.28-0.86,1.93-1.98,1.93-3.35c0-2.29-2.4-4.07-7.18-5.37c-0.38-0.09-0.77-0.19-1.19-0.31
		c-0.42-0.11-0.68-0.19-0.78-0.23c-2.94-0.81-5.05-1.83-6.33-3.05c-1.29-1.23-1.94-2.78-1.94-4.7c0-2.39,0.95-4.3,2.84-5.75
		c1.89-1.44,4.42-2.16,7.61-2.16c1.44,0,3.04,0.19,4.81,0.57c0.91,0.17,1.46,0.29,1.62,0.32c0.63,0.11,1.09,0.17,1.37,0.21
		l0.73-0.08l1.38-0.35l0.54,8.91l-0.54,0.05c-0.54-2.15-1.67-3.8-3.38-4.96c-1.7-1.16-3.89-1.74-6.54-1.74
		c-1.57,0-2.77,0.29-3.63,0.88c-0.86,0.59-1.28,1.42-1.28,2.5c0,1.77,2.27,3.26,6.8,4.49l1.68,0.43c3.44,0.93,5.85,2.04,7.24,3.32
		c1.39,1.28,2.08,2.99,2.08,5.13c0,2.89-1.18,5.22-3.55,6.97c-2.37,1.74-5.53,2.62-9.49,2.62c-1.7,0-3.47-0.27-5.32-0.81
		c-1.86-0.54-2.9-0.81-3.13-0.81c-0.22,0-0.53,0.07-0.92,0.19L371.06,117.81z"/>
	<path class="st8" d="M395.11,84.6c1.42,0,2.57,1.15,2.57,2.58c0,1.42-1.15,2.57-2.57,2.57c-1.42,0-2.58-1.15-2.58-2.57
		C392.54,85.75,393.69,84.6,395.11,84.6"/>
	<path class="st7" d="M394.18,87L394.18,87h0.86c0.18,0,0.33-0.02,0.43-0.06c0.1-0.04,0.18-0.1,0.24-0.18
		c0.05-0.08,0.08-0.17,0.08-0.27c0-0.14-0.05-0.26-0.16-0.35c-0.1-0.09-0.27-0.14-0.49-0.14h-0.96V87z M393.78,88.69v-3.03h1.34
		c0.27,0,0.48,0.03,0.62,0.08c0.14,0.05,0.25,0.15,0.34,0.29c0.08,0.14,0.13,0.29,0.13,0.46c0,0.21-0.07,0.4-0.21,0.54
		c-0.14,0.15-0.35,0.24-0.64,0.28c0.11,0.05,0.19,0.1,0.24,0.15c0.12,0.11,0.23,0.24,0.33,0.4l0.53,0.82h-0.5l-0.4-0.63
		c-0.12-0.18-0.21-0.32-0.29-0.42c-0.08-0.1-0.14-0.16-0.2-0.2c-0.06-0.04-0.12-0.07-0.18-0.08c-0.04-0.01-0.12-0.01-0.22-0.01
		h-0.46v1.34H393.78z"/>
	<rect x="210.98" y="125.02" class="st9" width="182.55" height="0.67"/>
	<rect x="210.98" y="125.02" class="st8" width="182.55" height="0.67"/>
	<path class="st8" d="M395.11,84.35c1.55,0,2.8,1.26,2.8,2.82c0,1.56-1.26,2.82-2.8,2.82c-1.55,0-2.8-1.26-2.8-2.82
		C392.3,85.61,393.56,84.35,395.11,84.35"/>
	<g>
		<path d="M213.75,128.52h1.72l2.8,7.04h-1.54l-0.6-1.67h-3.16l-0.63,1.67h-1.42L213.75,128.52z M214.59,129.7l-1.21,3.17h2.38
			L214.59,129.7z"/>
		<path d="M218.25,130.42h1.45l0.94,3.65c0.02,0.08,0.03,0.19,0.05,0.34c0.02,0.15,0.04,0.31,0.05,0.48
			c0.02-0.2,0.04-0.37,0.06-0.52c0.02-0.15,0.04-0.25,0.05-0.29l1.03-3.66h1.65l1.02,3.69c0.01,0.05,0.03,0.14,0.04,0.27
			c0.02,0.13,0.03,0.3,0.05,0.51c0.02-0.29,0.04-0.48,0.05-0.59c0.01-0.1,0.02-0.17,0.03-0.19l1.01-3.7h1.33l-1.68,5.15h-1.56
			l-1.07-3.85c-0.02-0.09-0.04-0.2-0.06-0.33c-0.02-0.12-0.03-0.25-0.03-0.38c-0.02,0.19-0.04,0.35-0.05,0.47
			c-0.01,0.12-0.03,0.19-0.04,0.22l-1.09,3.87h-1.58L218.25,130.42z"/>
		<path d="M232.94,132.5v3.06h-1.37v-2.78c0-0.48-0.08-0.83-0.25-1.05c-0.17-0.23-0.43-0.34-0.79-0.34c-0.38,0-0.68,0.14-0.91,0.43
			c-0.22,0.29-0.34,0.68-0.34,1.18v2.56h-1.36v-5.15h1.24v0.93c0.2-0.35,0.46-0.62,0.78-0.8c0.32-0.18,0.69-0.27,1.11-0.27
			c0.62,0,1.09,0.19,1.41,0.56C232.78,131.22,232.94,131.77,232.94,132.5z"/>
		<path d="M234.4,128.11h1.36v1.28h-1.36V128.11z M234.4,130.42h1.36v5.15h-1.36V130.42z"/>
		<path d="M242.34,132.5v3.06h-1.37v-2.78c0-0.48-0.08-0.83-0.25-1.05c-0.17-0.23-0.43-0.34-0.79-0.34c-0.38,0-0.68,0.14-0.91,0.43
			c-0.22,0.29-0.34,0.68-0.34,1.18v2.56h-1.36v-5.15h1.24v0.93c0.2-0.35,0.46-0.62,0.78-0.8c0.32-0.18,0.69-0.27,1.1-0.27
			c0.62,0,1.09,0.19,1.41,0.56C242.18,131.22,242.34,131.77,242.34,132.5z"/>
		<path d="M247.61,131.3v-0.88h1.27v4.52c0,0.96-0.24,1.67-0.73,2.14c-0.49,0.47-1.23,0.7-2.22,0.7c-0.32,0-0.63-0.03-0.94-0.08
			c-0.31-0.05-0.62-0.13-0.92-0.24l0.08-1.07c0.28,0.13,0.56,0.24,0.84,0.31c0.28,0.07,0.55,0.11,0.81,0.11
			c0.55,0,0.98-0.15,1.28-0.44c0.31-0.29,0.46-0.7,0.46-1.22v-0.56c-0.24,0.33-0.5,0.57-0.79,0.72c-0.29,0.16-0.61,0.23-0.97,0.23
			c-0.69,0-1.24-0.24-1.66-0.71c-0.42-0.48-0.63-1.1-0.63-1.88c0-0.79,0.21-1.43,0.63-1.92c0.42-0.49,0.97-0.74,1.65-0.74
			c0.4,0,0.75,0.08,1.05,0.25C247.13,130.7,247.39,130.96,247.61,131.3z M246.18,131.29c-0.37,0-0.68,0.15-0.91,0.44
			c-0.23,0.29-0.34,0.68-0.34,1.16c0,0.5,0.12,0.9,0.34,1.19c0.23,0.29,0.54,0.44,0.92,0.44c0.37,0,0.68-0.15,0.93-0.44
			c0.24-0.29,0.36-0.67,0.36-1.13c0-0.51-0.12-0.92-0.35-1.21C246.9,131.44,246.59,131.29,246.18,131.29z"/>
		<path d="M255.46,128.52h1.73l2.8,7.04h-1.54l-0.6-1.67h-3.16l-0.63,1.67h-1.42L255.46,128.52z M256.29,129.7l-1.21,3.17h2.38
			L256.29,129.7z"/>
		<path d="M265.62,132.5v3.06h-1.37v-2.78c0-0.48-0.08-0.83-0.25-1.05c-0.17-0.23-0.43-0.34-0.79-0.34c-0.38,0-0.68,0.14-0.91,0.43
			c-0.22,0.29-0.34,0.68-0.34,1.18v2.56h-1.36v-5.15h1.24v0.93c0.2-0.35,0.46-0.62,0.78-0.8c0.32-0.18,0.69-0.27,1.1-0.27
			c0.62,0,1.09,0.19,1.41,0.56C265.46,131.22,265.62,131.77,265.62,132.5z"/>
		<path d="M270.8,127.97h1.36v7.59h-1.22v-1.04c-0.21,0.37-0.48,0.65-0.8,0.84c-0.32,0.19-0.69,0.28-1.11,0.28
			c-0.65,0-1.18-0.25-1.6-0.77c-0.42-0.51-0.63-1.17-0.63-1.98c0-0.78,0.2-1.42,0.61-1.9c0.41-0.48,0.94-0.72,1.59-0.72
			c0.4,0,0.75,0.07,1.05,0.22c0.3,0.15,0.55,0.38,0.76,0.68V127.97z M269.44,131.28c-0.37,0-0.67,0.15-0.9,0.46
			c-0.23,0.31-0.34,0.72-0.34,1.22c0,0.51,0.11,0.92,0.34,1.22c0.23,0.3,0.54,0.45,0.93,0.45c0.4,0,0.72-0.15,0.96-0.45
			c0.24-0.3,0.36-0.71,0.36-1.21c0-0.52-0.12-0.93-0.36-1.23C270.19,131.43,269.86,131.28,269.44,131.28z"/>
		<path d="M276.15,128.52h1.45l1.14,5.28c0.01,0.06,0.03,0.19,0.06,0.39c0.03,0.2,0.05,0.43,0.08,0.69c0.01-0.21,0.02-0.4,0.04-0.58
			c0.02-0.18,0.04-0.34,0.07-0.47l1.19-5.31h1.83l1.21,5.3c0.02,0.09,0.04,0.23,0.07,0.42c0.02,0.19,0.05,0.4,0.07,0.64
			c0.01-0.17,0.02-0.35,0.04-0.53c0.02-0.17,0.05-0.34,0.08-0.5l1.19-5.34h1.34l-1.78,7.04h-1.82l-1.23-5.42
			c-0.03-0.12-0.05-0.26-0.07-0.43c-0.02-0.17-0.04-0.36-0.06-0.58c-0.01,0.2-0.03,0.38-0.05,0.56c-0.02,0.18-0.04,0.32-0.07,0.44
			l-1.21,5.42h-1.81L276.15,128.52z"/>
		<path d="M286.88,128.11h1.36v1.28h-1.36V128.11z M286.88,130.42h1.36v5.15h-1.36V130.42z"/>
		<path d="M294.82,132.5v3.06h-1.37v-2.78c0-0.48-0.08-0.83-0.25-1.05c-0.17-0.23-0.43-0.34-0.79-0.34c-0.38,0-0.68,0.14-0.91,0.43
			c-0.22,0.29-0.34,0.68-0.34,1.18v2.56h-1.36v-5.15h1.24v0.93c0.2-0.35,0.46-0.62,0.78-0.8c0.32-0.18,0.69-0.27,1.1-0.27
			c0.62,0,1.09,0.19,1.41,0.56C294.66,131.22,294.82,131.77,294.82,132.5z"/>
		<path d="M298.12,128.74v1.68h1.28v0.97h-1.28v2.25c0,0.38,0.06,0.66,0.18,0.83c0.12,0.17,0.32,0.25,0.6,0.25
			c0.07,0,0.15-0.01,0.24-0.02c0.09-0.01,0.18-0.04,0.28-0.07l0.02,0.93c-0.15,0.04-0.3,0.07-0.46,0.09
			c-0.16,0.02-0.32,0.03-0.47,0.03c-0.63,0-1.08-0.15-1.35-0.45c-0.27-0.3-0.41-0.8-0.41-1.5v-2.33h-1.05v-0.97h1.11v-1.25
			L298.12,128.74z"/>
		<path d="M305.2,132.94v0.42h-3.73c0.04,0.43,0.21,0.77,0.52,1.02c0.31,0.25,0.71,0.37,1.22,0.37c0.28,0,0.54-0.03,0.8-0.09
			c0.26-0.06,0.51-0.16,0.75-0.28v1.02c-0.26,0.1-0.54,0.18-0.84,0.23c-0.3,0.05-0.62,0.08-0.96,0.08c-0.88,0-1.58-0.25-2.08-0.74
			c-0.5-0.49-0.75-1.18-0.75-2.05c0-0.78,0.24-1.41,0.73-1.89c0.48-0.48,1.12-0.72,1.9-0.72c0.77,0,1.37,0.23,1.79,0.7
			C304.98,131.45,305.2,132.1,305.2,132.94z M303.97,132.53c-0.04-0.44-0.16-0.78-0.38-1.02c-0.21-0.24-0.49-0.36-0.84-0.36
			c-0.35,0-0.64,0.12-0.87,0.36c-0.23,0.24-0.37,0.58-0.42,1.02H303.97z"/>
		<path d="M309.52,130.34l-0.05,1.19c-0.07-0.02-0.15-0.04-0.22-0.05c-0.08-0.01-0.16-0.02-0.25-0.02c-0.45,0-0.79,0.14-1.03,0.43
			c-0.24,0.29-0.35,0.71-0.35,1.26v2.4h-1.36v-5.15h1.22v1.03c0.17-0.38,0.39-0.67,0.65-0.86c0.26-0.19,0.57-0.29,0.92-0.29
			c0.06,0,0.13,0,0.2,0.01C309.33,130.32,309.42,130.33,309.52,130.34z"/>
		<path d="M319.43,128.74l-0.15,1.11c-0.04-0.01-0.09-0.03-0.16-0.05c-0.72-0.25-1.29-0.37-1.69-0.37c-0.81,0-1.47,0.25-1.98,0.75
			c-0.51,0.5-0.76,1.14-0.76,1.92c0,0.75,0.24,1.36,0.73,1.83c0.49,0.47,1.12,0.71,1.9,0.71c0.18,0,0.43-0.05,0.78-0.16
			c0.07-0.02,0.13-0.04,0.16-0.05l0-1.8h-1.34v-1h2.69v3.64c-0.53,0.17-0.98,0.29-1.33,0.36c-0.35,0.07-0.69,0.1-1,0.1
			c-1.26,0-2.25-0.33-2.98-0.98c-0.73-0.65-1.09-1.54-1.09-2.66c0-1.14,0.37-2.05,1.11-2.71c0.74-0.66,1.76-0.99,3.05-0.99
			c0.31,0,0.79,0.08,1.45,0.24C319.09,128.67,319.29,128.71,319.43,128.74z"/>
		<path d="M325.6,132.63v2.93h-1.21l-0.02-0.83c-0.22,0.32-0.48,0.56-0.79,0.72c-0.3,0.16-0.64,0.25-1.01,0.25
			c-0.53,0-0.96-0.15-1.29-0.45c-0.33-0.3-0.49-0.69-0.49-1.17c0-0.57,0.23-1,0.7-1.29c0.47-0.29,1.16-0.43,2.09-0.43h0.7v-0.08
			c0-0.35-0.11-0.62-0.34-0.82c-0.23-0.19-0.55-0.29-0.96-0.29c-0.23,0-0.48,0.04-0.73,0.1c-0.25,0.07-0.51,0.17-0.78,0.31
			l-0.02-0.94c0.32-0.13,0.63-0.22,0.93-0.28c0.31-0.06,0.61-0.09,0.92-0.09c0.8,0,1.38,0.19,1.74,0.56
			C325.42,131.22,325.6,131.82,325.6,132.63z M323.82,133.11c-0.55,0-0.97,0.08-1.25,0.23c-0.28,0.15-0.42,0.37-0.42,0.67
			c0,0.22,0.08,0.41,0.24,0.55c0.16,0.14,0.37,0.21,0.63,0.21c0.37,0,0.68-0.13,0.92-0.38c0.24-0.26,0.36-0.59,0.36-0.99v-0.28
			H323.82z"/>
		<path d="M330.34,130.34l-0.05,1.19c-0.07-0.02-0.15-0.04-0.22-0.05c-0.08-0.01-0.16-0.02-0.25-0.02c-0.45,0-0.79,0.14-1.03,0.43
			c-0.24,0.29-0.35,0.71-0.35,1.26v2.4h-1.36v-5.15h1.22v1.03c0.17-0.38,0.39-0.67,0.65-0.86c0.26-0.19,0.57-0.29,0.92-0.29
			c0.06,0,0.13,0,0.2,0.01C330.15,130.32,330.24,130.33,330.34,130.34z"/>
		<path d="M334.92,127.97h1.36v7.59h-1.22v-1.04c-0.21,0.37-0.48,0.65-0.8,0.84c-0.32,0.19-0.69,0.28-1.11,0.28
			c-0.65,0-1.18-0.25-1.6-0.77c-0.42-0.51-0.63-1.17-0.63-1.98c0-0.78,0.2-1.42,0.61-1.9c0.41-0.48,0.94-0.72,1.59-0.72
			c0.4,0,0.75,0.07,1.05,0.22c0.3,0.15,0.55,0.38,0.76,0.68V127.97z M333.55,131.28c-0.37,0-0.67,0.15-0.9,0.46
			c-0.23,0.31-0.34,0.72-0.34,1.22c0,0.51,0.11,0.92,0.34,1.22c0.23,0.3,0.54,0.45,0.93,0.45c0.4,0,0.72-0.15,0.96-0.45
			c0.24-0.3,0.36-0.71,0.36-1.21c0-0.52-0.12-0.93-0.36-1.23C334.3,131.43,333.97,131.28,333.55,131.28z"/>
		<path d="M342.54,132.94v0.42h-3.73c0.04,0.43,0.21,0.77,0.52,1.02c0.31,0.25,0.71,0.37,1.22,0.37c0.28,0,0.54-0.03,0.8-0.09
			c0.26-0.06,0.51-0.16,0.75-0.28v1.02c-0.26,0.1-0.54,0.18-0.84,0.23c-0.3,0.05-0.62,0.08-0.96,0.08c-0.88,0-1.58-0.25-2.08-0.74
			c-0.5-0.49-0.75-1.18-0.75-2.05c0-0.78,0.24-1.41,0.73-1.89c0.48-0.48,1.12-0.72,1.9-0.72c0.77,0,1.37,0.23,1.79,0.7
			C342.33,131.45,342.54,132.1,342.54,132.94z M341.31,132.53c-0.04-0.44-0.16-0.78-0.38-1.02c-0.21-0.24-0.49-0.36-0.84-0.36
			c-0.35,0-0.64,0.12-0.87,0.36c-0.23,0.24-0.37,0.58-0.42,1.02H341.31z"/>
		<path d="M348.62,132.5v3.06h-1.37v-2.78c0-0.48-0.08-0.83-0.25-1.05c-0.17-0.23-0.43-0.34-0.79-0.34c-0.38,0-0.68,0.14-0.91,0.43
			c-0.22,0.29-0.34,0.68-0.34,1.18v2.56h-1.36v-5.15h1.24v0.93c0.2-0.35,0.46-0.62,0.78-0.8c0.32-0.18,0.69-0.27,1.1-0.27
			c0.62,0,1.09,0.19,1.41,0.56C348.46,131.22,348.62,131.77,348.62,132.5z"/>
		<path d="M357.44,128.7l-0.12,1.11c-0.27-0.12-0.54-0.21-0.81-0.27c-0.27-0.06-0.53-0.09-0.79-0.09c-0.38,0-0.68,0.07-0.9,0.21
			c-0.21,0.14-0.32,0.33-0.32,0.58c0,0.31,0.39,0.65,1.16,1.03c0.08,0.04,0.13,0.06,0.17,0.08c0.72,0.36,1.22,0.7,1.48,1.01
			c0.26,0.32,0.4,0.7,0.4,1.15c0,0.65-0.26,1.18-0.77,1.6c-0.51,0.41-1.18,0.62-2.01,0.62c-0.34,0-0.91-0.12-1.72-0.36
			c-0.08-0.03-0.15-0.05-0.19-0.06l0.13-1.21c0.41,0.2,0.75,0.33,1.03,0.42c0.28,0.08,0.53,0.12,0.76,0.12
			c0.38,0,0.7-0.09,0.94-0.26c0.24-0.17,0.36-0.39,0.36-0.66c0-0.34-0.39-0.72-1.16-1.13c-0.05-0.03-0.1-0.05-0.12-0.06
			c-0.03-0.02-0.08-0.04-0.15-0.07c-0.58-0.3-0.98-0.57-1.21-0.81c-0.17-0.17-0.29-0.37-0.38-0.58c-0.09-0.22-0.13-0.45-0.13-0.69
			c0-0.6,0.24-1.08,0.72-1.45c0.48-0.37,1.13-0.55,1.93-0.55c0.31,0,0.77,0.08,1.37,0.24C357.25,128.65,357.37,128.68,357.44,128.7z
			"/>
		<path d="M358.38,130.42h1.47l1.32,3.94l1.29-3.94h1.37l-2.09,5.38c-0.29,0.74-0.6,1.26-0.93,1.55c-0.33,0.29-0.78,0.43-1.32,0.43
			c-0.09,0-0.2-0.01-0.33-0.02c-0.13-0.01-0.28-0.03-0.45-0.06l0.11-1.04c0.08,0.02,0.15,0.04,0.23,0.05
			c0.08,0.01,0.15,0.02,0.21,0.02c0.27,0,0.49-0.08,0.68-0.23c0.19-0.15,0.36-0.41,0.53-0.76L358.38,130.42z"/>
		<path d="M367.95,130.58l-0.1,0.98c-0.23-0.12-0.47-0.21-0.69-0.27c-0.23-0.06-0.45-0.09-0.68-0.09c-0.25,0-0.43,0.04-0.56,0.12
			c-0.13,0.08-0.2,0.2-0.2,0.35c0,0.23,0.28,0.46,0.83,0.7c0.06,0.03,0.11,0.05,0.14,0.06c0.57,0.24,0.96,0.48,1.17,0.72
			c0.21,0.24,0.32,0.53,0.32,0.88c0,0.49-0.2,0.88-0.6,1.16c-0.4,0.29-0.95,0.43-1.64,0.43c-0.29,0-0.58-0.02-0.86-0.07
			c-0.28-0.04-0.54-0.11-0.79-0.2l0.08-1.02c0.25,0.12,0.51,0.21,0.77,0.28c0.26,0.06,0.52,0.09,0.78,0.09
			c0.27,0,0.48-0.04,0.63-0.13c0.15-0.09,0.22-0.21,0.22-0.36c0-0.25-0.35-0.55-1.05-0.89c-0.01-0.01-0.02-0.01-0.03-0.01
			c-0.52-0.25-0.88-0.48-1.06-0.7c-0.18-0.21-0.28-0.48-0.28-0.78c0-0.45,0.2-0.82,0.59-1.11c0.39-0.28,0.91-0.43,1.55-0.43
			c0.17,0,0.36,0.02,0.57,0.06C367.27,130.38,367.57,130.46,367.95,130.58z"/>
		<path d="M371.17,128.74v1.68h1.28v0.97h-1.28v2.25c0,0.38,0.06,0.66,0.18,0.83c0.12,0.17,0.32,0.25,0.6,0.25
			c0.07,0,0.15-0.01,0.24-0.02c0.09-0.01,0.18-0.04,0.28-0.07l0.02,0.93c-0.15,0.04-0.3,0.07-0.46,0.09
			c-0.16,0.02-0.32,0.03-0.47,0.03c-0.63,0-1.08-0.15-1.35-0.45c-0.27-0.3-0.41-0.8-0.41-1.5v-2.33h-1.05v-0.97h1.11v-1.25
			L371.17,128.74z"/>
		<path d="M378.25,132.94v0.42h-3.73c0.04,0.43,0.21,0.77,0.52,1.02c0.31,0.25,0.71,0.37,1.22,0.37c0.28,0,0.54-0.03,0.8-0.09
			c0.26-0.06,0.51-0.16,0.75-0.28v1.02c-0.26,0.1-0.54,0.18-0.84,0.23c-0.3,0.05-0.62,0.08-0.96,0.08c-0.88,0-1.58-0.25-2.08-0.74
			c-0.5-0.49-0.75-1.18-0.75-2.05c0-0.78,0.24-1.41,0.73-1.89c0.48-0.48,1.12-0.72,1.9-0.72c0.77,0,1.37,0.23,1.79,0.7
			C378.03,131.45,378.25,132.1,378.25,132.94z M377.02,132.53c-0.04-0.44-0.16-0.78-0.38-1.02c-0.21-0.24-0.49-0.36-0.84-0.36
			c-0.35,0-0.64,0.12-0.87,0.36c-0.23,0.24-0.37,0.58-0.42,1.02H377.02z"/>
		<path d="M383.98,131.39c0.2-0.36,0.46-0.64,0.77-0.82c0.31-0.18,0.67-0.27,1.09-0.27c0.56,0,1,0.19,1.31,0.57
			c0.31,0.38,0.46,0.93,0.46,1.63v3.06h-1.36v-2.78c0-0.47-0.08-0.82-0.22-1.04c-0.15-0.22-0.38-0.33-0.69-0.33
			c-0.37,0-0.66,0.14-0.88,0.42c-0.21,0.28-0.32,0.67-0.32,1.17v2.56h-1.36v-2.78c0-0.47-0.08-0.81-0.23-1.04
			c-0.15-0.22-0.38-0.34-0.7-0.34c-0.37,0-0.66,0.14-0.88,0.42c-0.21,0.28-0.32,0.67-0.32,1.17v2.56h-1.35v-5.15h1.23v0.93
			c0.2-0.35,0.45-0.61,0.76-0.79c0.31-0.18,0.66-0.26,1.07-0.26c0.36,0,0.69,0.1,0.97,0.29
			C383.62,130.77,383.84,131.04,383.98,131.39z"/>
		<path d="M392.46,130.58l-0.1,0.98c-0.23-0.12-0.47-0.21-0.69-0.27c-0.23-0.06-0.45-0.09-0.68-0.09c-0.25,0-0.43,0.04-0.56,0.12
			c-0.13,0.08-0.2,0.2-0.2,0.35c0,0.23,0.28,0.46,0.83,0.7c0.06,0.03,0.11,0.05,0.14,0.06c0.57,0.24,0.96,0.48,1.17,0.72
			c0.21,0.24,0.32,0.53,0.32,0.88c0,0.49-0.2,0.88-0.6,1.16c-0.4,0.29-0.95,0.43-1.64,0.43c-0.29,0-0.58-0.02-0.86-0.07
			c-0.28-0.04-0.54-0.11-0.79-0.2l0.08-1.02c0.25,0.12,0.51,0.21,0.77,0.28c0.26,0.06,0.52,0.09,0.78,0.09
			c0.27,0,0.48-0.04,0.63-0.13c0.15-0.09,0.22-0.21,0.22-0.36c0-0.25-0.35-0.55-1.05-0.89c-0.01-0.01-0.02-0.01-0.03-0.01
			c-0.52-0.25-0.88-0.48-1.06-0.7c-0.18-0.21-0.28-0.48-0.28-0.78c0-0.45,0.2-0.82,0.59-1.11c0.39-0.28,0.91-0.43,1.55-0.43
			c0.17,0,0.36,0.02,0.57,0.06C391.78,130.38,392.07,130.46,392.46,130.58z"/>
	</g>
</g>
</svg>
