<?xml version="1.0" standalone="no"?>
<!DOCTYPE svg PUBLIC "-//W3C//DTD SVG 20010904//EN"
 "http://www.w3.org/TR/2001/REC-SVG-20010904/DTD/svg10.dtd">
<svg version="1.0" xmlns="http://www.w3.org/2000/svg"
 width="170.000000pt" height="170.000000pt" viewBox="0 0 170.000000 170.000000"
 preserveAspectRatio="xMidYMid meet">
<metadata>
Created by potrace 1.11, written by Peter Selinger 2001-2013
</metadata>
<g transform="translate(0.000000,170.000000) scale(0.100000,-0.100000)"
fill="#000000" stroke="none">
<path d="M1237 1654 c-14 -21 -73 -115 -131 -209 -89 -143 -103 -171 -88 -176
114 -43 166 -66 212 -94 43 -26 58 -31 66 -22 19 19 324 456 330 471 7 19
-152 56 -272 63 l-92 6 -25 -39z"/>
<path d="M975 1656 c-223 -59 -405 -163 -545 -313 -60 -63 -164 -212 -155
-221 2 -2 27 14 57 36 120 90 245 130 433 139 l120 6 110 180 c61 98 112 183
113 188 6 15 -37 10 -133 -15z"/>
<path d="M462 1169 c-148 -74 -270 -210 -332 -371 -28 -73 -65 -226 -56 -235
3 -3 110 91 238 207 l233 213 7 61 c4 34 9 85 12 114 5 38 3 52 -6 52 -7 0
-50 -19 -96 -41z"/>
<path d="M320 654 l-245 -235 1 -52 c2 -84 66 -368 83 -367 3 1 116 158 249
350 l244 350 -23 37 c-13 20 -32 62 -44 94 l-21 58 -244 -235z"/>
</g>
</svg>
